<?xml version="1.0" encoding="UTF-8"?><svg xmlns="http://www.w3.org/2000/svg" xmlns:xlink="http://www.w3.org/1999/xlink" viewBox="0 0 1180.92 324.6"><defs><style>.cls-1,.cls-2,.cls-3,.cls-4{fill:none;}.cls-2,.cls-5,.cls-6,.cls-3,.cls-7,.cls-4,.cls-8{stroke:#000;stroke-miterlimit:10;}.cls-2,.cls-8{stroke-width:6px;}.cls-9{clip-path:url(#clippath);}.cls-10,.cls-5,.cls-11,.cls-8{fill:#fff;}.cls-12{fill:#cb4761;}.cls-5,.cls-3{stroke-width:8.35px;}.cls-6{fill:#4976a2;}.cls-6,.cls-7{stroke-width:7px;}.cls-7{fill:#f9da65;}.cls-4{stroke-width:8px;}.cls-11{fill-rule:evenodd;}</style><clipPath id="clippath"><rect class="cls-1" x=".01" y=".01" width="1180.91" height="324.65"/></clipPath></defs><g id="Layer_3"><rect class="cls-12" x=".01" y=".01" width="1180.91" height="324.65"/></g><g id="Layer_5"><g class="cls-9"><circle class="cls-10" cx="1056.55" cy="28.89" r="233.89"/></g></g><g id="Layer_6"><rect class="cls-3" x="912.02" y="122.99" width="22.73" height="22.54"/><rect x="1041.14" y="40.6" width="12.9" height="12.79"/><rect x="1098.09" y="155.28" width="12.9" height="12.79"/><rect x="964.88" y="199.09" width="13" height="13"/><rect x="1031.21" y="206.89" width="13" height="13"/><circle class="cls-5" cx="921.64" cy="40.7" r="14.09"/><circle class="cls-5" cx="876.54" cy="220.3" r="11.28"/><circle class="cls-5" cx="1077.49" cy="236.36" r="15.5"/><line class="cls-4" x1="885.26" y1="227.34" x2="1061.78" y2="240.13"/><line class="cls-4" x1="1088.44" y1="225.23" x2="1089.01" y2="161.49"/><line class="cls-4" x1="934.17" y1="45.44" x2="989.95" y2="69.45"/><line class="cls-4" x1="914.84" y1="52.27" x2="871.38" y2="211.29"/><line class="cls-4" x1="888.26" y1="216.18" x2="960.83" y2="157.84"/><line class="cls-4" x1="929.16" y1="55.73" x2="959.06" y2="101.62"/><line class="cls-4" x1="1054.58" y1="181.98" x2="1069.48" y2="223.1"/></g><g id="Layer_9"><path class="cls-6" d="m981.27,159.4h-17.93c-2.64,0-4.78-2.14-4.78-4.78v-48.75c0-2.64,2.14-4.78,4.78-4.78h49.07c2.64,0,4.78-2.14,4.78-4.78h0c0-2.64-2.14-4.78-4.78-4.78h-19.12c-2.64,0-4.78-2.14-4.78-4.78v-14.47c0-2.64,2.14-4.78,4.78-4.78h49.07c2.64,0,4.78,2.14,4.78,4.78v51.89c0,.45-.37.82-.82.82h-48.77c-6.24,0-11.3,5.03-11.35,11.26l-.15,18.41c-.02,2.62-2.15,4.74-4.78,4.74Z"/><circle class="cls-2" cx="1001.59" cy="79.81" r="1.97"/><path class="cls-7" d="m1067.68,105.01h17.93c2.64,0,4.78,2.14,4.78,4.78v48.75c0,2.64-2.14,4.78-4.78,4.78h-49.07c-2.64,0-4.78,2.14-4.78,4.78h0c0,2.64,2.14,4.78,4.78,4.78h19.12c2.64,0,4.78,2.14,4.78,4.78v14.47c0,2.64-2.14,4.78-4.78,4.78h-49.07c-2.64,0-4.78-2.14-4.78-4.78v-47.93c0-2.64,2.14-4.78,4.78-4.78h47.77c4.6,0,8.33-3.71,8.37-8.3l.17-21.37c.02-2.62,2.15-4.74,4.78-4.74Z"/><circle class="cls-8" cx="1047.03" cy="185.28" r="1.97"/></g><g id="Typo"><path class="cls-10" d="m86.55,174.78v-41.96h8.06v41.96h-8.06Zm6.93,0v-7.5h8.57c2.16,0,4.08-.33,5.76-.99,1.68-.66,3.11-1.6,4.29-2.81,1.17-1.21,2.07-2.64,2.7-4.29.62-1.65.94-3.47.94-5.48s-.31-3.95-.94-5.59c-.62-1.65-1.52-3.06-2.7-4.23-1.17-1.17-2.6-2.06-4.29-2.67-1.69-.61-3.61-.91-5.76-.91h-8.57v-7.5h8.06c3.75,0,7.02.55,9.82,1.65,2.8,1.1,5.13,2.6,6.98,4.51,1.85,1.91,3.25,4.09,4.17,6.53.93,2.44,1.39,4.97,1.39,7.58v1.25c0,2.5-.46,4.96-1.39,7.38-.93,2.42-2.32,4.62-4.17,6.59-1.86,1.97-4.18,3.54-6.98,4.71-2.8,1.17-6.08,1.76-9.82,1.76h-8.06Z"/><path class="cls-10" d="m131.12,174.55v-41.45h8.06v41.45h-8.06Zm26.86,0l-15.16-19.36h-5.85l18-22.09h9.26l-16.24,19.88-.23-3.98,20.05,25.55h-9.82Z"/><path class="cls-10" d="m189.16,175.63c-3.56,0-6.69-.6-9.4-1.79-2.71-1.19-4.98-2.8-6.81-4.83-1.84-2.02-3.22-4.32-4.15-6.87-.93-2.56-1.39-5.21-1.39-7.98v-1.25c0-2.61.45-5.17,1.36-7.67s2.24-4.75,4-6.76c1.76-2.01,3.94-3.61,6.53-4.8,2.59-1.19,5.57-1.79,8.94-1.79,3.63,0,6.85.67,9.65,2.02,2.8,1.34,5.05,3.22,6.76,5.62,1.7,2.4,2.71,5.2,3.01,8.38h-8.12c-.27-1.78-.93-3.3-1.99-4.57-1.06-1.27-2.4-2.24-4-2.92-1.61-.68-3.38-1.02-5.31-1.02s-3.68.34-5.25,1.02c-1.57.68-2.91,1.65-4,2.9-1.1,1.25-1.94,2.75-2.53,4.49-.59,1.74-.88,3.67-.88,5.79,0,2.31.32,4.37.97,6.19.64,1.82,1.55,3.36,2.73,4.63,1.17,1.27,2.59,2.23,4.26,2.9,1.67.66,3.54.99,5.62.99,2.76,0,5.19-.58,7.27-1.73,2.08-1.15,3.6-2.66,4.54-4.51l-1.42,6.53v-10.68h7.44v9.2c-1.78,2.69-4.2,4.78-7.27,6.27s-6.59,2.24-10.56,2.24Zm-1.31-16.13v-6.02h22.6v6.02h-22.6Z"/><path class="cls-10" d="m243.5,175.63c-3.67,0-6.77-.59-9.28-1.76-2.52-1.17-4.44-2.79-5.76-4.85-1.33-2.06-1.99-4.4-1.99-7.01h7.89c0,1.1.3,2.17.91,3.21.6,1.04,1.58,1.88,2.92,2.53,1.34.64,3.11.97,5.31.97,1.97,0,3.61-.28,4.94-.85,1.32-.57,2.31-1.31,2.95-2.24.64-.93.97-1.98.97-3.15,0-1.48-.62-2.66-1.87-3.55-1.25-.89-3.18-1.45-5.79-1.68l-3.63-.28c-3.98-.34-7.15-1.58-9.51-3.72-2.37-2.14-3.55-4.97-3.55-8.49,0-2.65.62-4.93,1.87-6.84,1.25-1.91,3-3.39,5.25-4.43,2.25-1.04,4.89-1.56,7.92-1.56s5.85.55,8.12,1.65c2.27,1.1,4.03,2.64,5.28,4.63,1.25,1.99,1.87,4.33,1.87,7.01h-7.89c0-1.14-.27-2.19-.82-3.15-.55-.97-1.36-1.74-2.44-2.33-1.08-.59-2.45-.88-4.12-.88s-2.92.27-3.97.79c-1.06.53-1.86,1.25-2.39,2.16-.53.91-.79,1.89-.79,2.95,0,1.29.47,2.41,1.42,3.38.95.97,2.44,1.52,4.49,1.68l3.63.34c2.95.23,5.55.85,7.78,1.87,2.23,1.02,3.97,2.4,5.2,4.15,1.23,1.74,1.85,3.84,1.85,6.3,0,2.61-.68,4.91-2.04,6.9-1.36,1.99-3.3,3.53-5.82,4.63-2.52,1.1-5.48,1.65-8.89,1.65Z"/><path class="cls-10" d="m267.64,174.78v-41.96h8.06v41.96h-8.06Zm6.93,0v-7.5h8.57c2.16,0,4.08-.33,5.76-.99,1.68-.66,3.11-1.6,4.29-2.81,1.17-1.21,2.07-2.64,2.7-4.29.62-1.65.94-3.47.94-5.48s-.31-3.95-.94-5.59c-.62-1.65-1.52-3.06-2.7-4.23-1.17-1.17-2.6-2.06-4.29-2.67-1.69-.61-3.61-.91-5.76-.91h-8.57v-7.5h8.06c3.75,0,7.02.55,9.82,1.65,2.8,1.1,5.13,2.6,6.98,4.51,1.85,1.91,3.25,4.09,4.17,6.53.93,2.44,1.39,4.97,1.39,7.58v1.25c0,2.5-.46,4.96-1.39,7.38-.93,2.42-2.32,4.62-4.17,6.59-1.86,1.97-4.18,3.54-6.98,4.71-2.8,1.17-6.08,1.76-9.82,1.76h-8.06Z"/><path class="cls-10" d="m312.21,174.55v-41.45h8.06v41.45h-8.06Zm26.86,0l-15.16-19.36h-5.85l18-22.09h9.26l-16.24,19.88-.23-3.98,20.05,25.55h-9.82Z"/><path class="cls-10" d="m95.87,234.65c-1.68,0-3.13-.3-4.36-.89-1.23-.59-2.24-1.37-3.05-2.32-.8-.96-1.41-1.99-1.8-3.1-.4-1.11-.6-2.18-.6-3.21v-.56c0-1.13.2-2.27.61-3.39.41-1.13,1.02-2.15,1.84-3.06.82-.91,1.84-1.65,3.06-2.2,1.22-.55,2.65-.83,4.29-.83s3.05.28,4.27.83c1.22.55,2.24,1.28,3.06,2.2.82.91,1.44,1.94,1.84,3.06s.61,2.26.61,3.39v.56c0,1.03-.2,2.1-.6,3.21-.4,1.11-1,2.14-1.8,3.1-.8.96-1.82,1.73-3.05,2.32-1.23.59-2.67.89-4.33.89Zm0-3.35c.95,0,1.8-.17,2.55-.51.75-.34,1.4-.81,1.93-1.41.53-.6.94-1.29,1.22-2.06.28-.77.42-1.59.42-2.45,0-.93-.14-1.79-.42-2.57-.28-.78-.69-1.46-1.22-2.03-.53-.58-1.18-1.02-1.94-1.35s-1.61-.48-2.54-.48-1.8.16-2.57.48-1.41.77-1.94,1.35c-.53.58-.94,1.25-1.22,2.03-.28.78-.42,1.63-.42,2.57,0,.86.14,1.68.42,2.45.28.77.69,1.46,1.22,2.06.53.6,1.18,1.07,1.94,1.41.76.34,1.62.51,2.57.51Z"/><path class="cls-10" d="m108.85,234.16v-13.79h2.79v5.84h-.08c0-1.98.42-3.48,1.27-4.5.85-1.02,2.09-1.52,3.73-1.52h.51v3.07h-.97c-1.19,0-2.1.32-2.76.95-.65.64-.98,1.55-.98,2.76v7.19h-3.53Z"/><path class="cls-10" d="m118.17,223.01v-2.64h5.46v2.64h-5.46Zm3.23-4.29c-.69,0-1.21-.18-1.54-.55-.33-.36-.5-.83-.5-1.38s.17-1.02.5-1.37c.33-.36.84-.53,1.54-.53s1.2.18,1.52.53c.32.36.48.81.48,1.37s-.16,1.02-.48,1.38c-.32.36-.83.55-1.52.55Zm-1.3,15.45v-13.79h3.53v13.79h-3.53Z"/><path class="cls-10" d="m133.09,239.6c-.66,0-1.33-.03-2.02-.08-.69-.05-1.33-.12-1.92-.2v-2.95c.61.07,1.26.13,1.96.19.69.06,1.35.09,1.96.09,1.13,0,2.05-.14,2.76-.41.7-.27,1.22-.7,1.55-1.28s.5-1.33.5-2.22v-2.72l.76-1.73c-.05,1.27-.31,2.35-.79,3.24s-1.12,1.57-1.93,2.03c-.81.47-1.75.7-2.82.7-.95,0-1.81-.18-2.58-.53-.77-.36-1.43-.85-1.98-1.47s-.98-1.36-1.28-2.21c-.31-.85-.46-1.75-.46-2.72v-.53c0-.97.16-1.87.47-2.71.31-.84.76-1.57,1.33-2.2.58-.63,1.26-1.11,2.06-1.45.8-.34,1.68-.51,2.64-.51,1.13,0,2.12.25,2.96.74s1.49,1.2,1.97,2.13c.47.93.74,2.08.79,3.43l-.61.1v-5.97h2.79v12.17c0,1.68-.29,3.03-.86,4.06-.58,1.03-1.46,1.79-2.65,2.27-1.19.48-2.72.72-4.59.72Zm1.02-8.36c.68,0,1.3-.15,1.85-.46.56-.3,1.01-.75,1.35-1.32.34-.58.51-1.27.51-2.08v-.89c0-.78-.17-1.44-.52-1.98-.35-.54-.8-.95-1.36-1.23-.56-.28-1.17-.42-1.83-.42-.75,0-1.4.17-1.97.52-.57.35-1.01.83-1.33,1.46-.32.63-.48,1.37-.48,2.24s.16,1.58.48,2.21c.32.63.77,1.11,1.33,1.45.57.34,1.22.51,1.97.51Z"/><path class="cls-10" d="m143.78,223.01v-2.64h5.46v2.64h-5.46Zm3.23-4.29c-.69,0-1.21-.18-1.54-.55-.33-.36-.5-.83-.5-1.38s.17-1.02.5-1.37c.33-.36.84-.53,1.54-.53s1.2.18,1.52.53c.32.36.48.81.48,1.37s-.16,1.02-.48,1.38c-.32.36-.83.55-1.52.55Zm-1.3,15.45v-13.79h3.53v13.79h-3.53Z"/><path class="cls-10" d="m153.31,234.16v-13.79h2.79v5.92h-.25c0-1.41.19-2.58.56-3.52.37-.94.93-1.65,1.66-2.12s1.66-.71,2.76-.71h.15c1.64,0,2.89.53,3.73,1.59.85,1.06,1.27,2.64,1.27,4.74v7.9h-3.53v-8.21c0-.85-.24-1.53-.72-2.06-.48-.52-1.15-.79-1.99-.79s-1.56.27-2.1.8c-.53.53-.8,1.25-.8,2.15v8.1h-3.53Z"/><path class="cls-10" d="m168.35,218.79v-3.18h14.33v3.18h-14.33Zm5.36,15.37v-15.88h3.61v15.88h-3.61Z"/><path class="cls-10" d="m184.45,234.16v-13.79h2.79v5.84h-.08c0-1.98.42-3.48,1.27-4.5.85-1.02,2.09-1.52,3.73-1.52h.51v3.07h-.97c-1.19,0-2.1.32-2.76.95-.65.64-.98,1.55-.98,2.76v7.19h-3.53Z"/><path class="cls-10" d="m198.88,234.52c-1,0-1.88-.18-2.63-.53-.75-.36-1.34-.86-1.75-1.52-.42-.66-.62-1.46-.62-2.39,0-1.02.25-1.85.75-2.49.5-.64,1.2-1.13,2.11-1.45.91-.32,1.97-.48,3.19-.48h3.2v2.11h-3.25c-.81,0-1.44.2-1.87.6-.43.4-.65.91-.65,1.54s.22,1.13.65,1.52,1.05.58,1.87.58c.49,0,.94-.09,1.36-.27.41-.18.76-.48,1.04-.91.28-.43.44-1.02.47-1.77l.86.99c-.08.97-.32,1.78-.7,2.44-.38.66-.91,1.16-1.58,1.51-.67.35-1.49.52-2.45.52Zm4.45-.36v-4.09h-.58v-4.55c0-.8-.2-1.39-.58-1.78-.39-.39-.99-.58-1.8-.58-.42,0-.93,0-1.52.03-.59.02-1.19.04-1.79.06-.6.03-1.14.06-1.61.09v-3c.39-.03.83-.07,1.32-.1.49-.03.99-.05,1.51-.06.52,0,1-.01,1.46-.01,1.42,0,2.6.19,3.54.56s1.65.96,2.13,1.75c.48.8.72,1.84.72,3.12v8.56h-2.79Z"/><path class="cls-10" d="m208.64,223.01v-2.64h5.46v2.64h-5.46Zm3.23-4.29c-.69,0-1.21-.18-1.54-.55-.33-.36-.5-.83-.5-1.38s.17-1.02.5-1.37c.33-.36.84-.53,1.54-.53s1.2.18,1.52.53c.32.36.48.81.48,1.37s-.16,1.02-.48,1.38c-.32.36-.83.55-1.52.55Zm-1.3,15.45v-13.79h3.53v13.79h-3.53Z"/><path class="cls-10" d="m216.62,218.26v-2.64h5.26v2.64h-5.26Zm1.73,15.9v-18.55h3.53v18.55h-3.53Z"/><path class="cls-10" d="m231.68,234.27v-18.77h3.61v18.77h-3.61Zm3.1,0v-3.35h3.84c.97,0,1.82-.15,2.58-.44.75-.3,1.39-.72,1.92-1.26.52-.54.93-1.18,1.21-1.92.28-.74.42-1.55.42-2.45s-.14-1.77-.42-2.5c-.28-.74-.68-1.37-1.21-1.89s-1.16-.92-1.92-1.19c-.75-.27-1.61-.41-2.58-.41h-3.84v-3.35h3.61c1.68,0,3.14.25,4.4.74,1.25.49,2.29,1.16,3.12,2.02.83.86,1.45,1.83,1.87,2.92.41,1.09.62,2.22.62,3.39v.56c0,1.12-.21,2.22-.62,3.3-.42,1.08-1.04,2.07-1.87,2.95-.83.88-1.87,1.58-3.12,2.11-1.25.53-2.72.79-4.4.79h-3.61Z"/><path class="cls-10" d="m257.52,234.65c-1.19,0-2.22-.2-3.11-.61-.89-.41-1.63-.95-2.21-1.64-.58-.69-1.02-1.45-1.32-2.3-.3-.85-.44-1.71-.44-2.59v-.48c0-.92.15-1.8.44-2.66.3-.85.74-1.62,1.32-2.29.58-.67,1.31-1.2,2.17-1.6s1.86-.6,3-.6c1.49,0,2.74.33,3.75.98,1.01.65,1.77,1.51,2.27,2.57.51,1.06.76,2.2.76,3.42v1.27h-12.22v-2.16h10.01l-1.09,1.07c0-.88-.13-1.63-.38-2.26-.25-.63-.64-1.11-1.16-1.45-.52-.34-1.16-.51-1.94-.51s-1.44.18-1.98.53c-.54.36-.95.87-1.23,1.54-.28.67-.42,1.47-.42,2.4,0,.86.14,1.63.41,2.3.27.67.69,1.19,1.24,1.57.56.38,1.27.57,2.13.57s1.57-.17,2.11-.52c.54-.35.89-.77,1.04-1.28h3.25c-.2.95-.59,1.78-1.17,2.49-.58.71-1.31,1.26-2.2,1.65-.89.39-1.9.58-3.04.58Z"/><path class="cls-10" d="m273.22,234.65c-1.2,0-2.24-.2-3.11-.61-.87-.41-1.6-.95-2.19-1.63-.58-.68-1.02-1.44-1.31-2.29-.29-.85-.43-1.71-.43-2.59v-.48c0-.93.15-1.83.44-2.68.3-.85.74-1.62,1.33-2.29s1.33-1.2,2.2-1.6c.87-.4,1.88-.6,3.04-.6s2.28.23,3.23.7,1.71,1.11,2.27,1.94c.57.83.88,1.8.95,2.9h-3.43c-.08-.71-.39-1.3-.9-1.78-.52-.47-1.22-.71-2.12-.71-.78,0-1.43.19-1.94.56-.52.37-.9.89-1.16,1.54-.25.65-.38,1.4-.38,2.25s.12,1.55.37,2.21c.25.66.63,1.18,1.14,1.55.52.37,1.18.56,1.99.56.61,0,1.13-.11,1.58-.33.44-.22.79-.52,1.05-.92.26-.39.43-.83.5-1.32h3.43c-.07,1.12-.39,2.1-.98,2.93-.58.84-1.35,1.5-2.31,1.97-.96.47-2.05.71-3.26.71Z"/><path class="cls-10" d="m288.77,234.65c-1.19,0-2.22-.2-3.11-.61-.89-.41-1.63-.95-2.21-1.64-.58-.69-1.02-1.45-1.32-2.3-.3-.85-.44-1.71-.44-2.59v-.48c0-.92.15-1.8.44-2.66.3-.85.74-1.62,1.32-2.29.58-.67,1.31-1.2,2.17-1.6s1.86-.6,3-.6c1.49,0,2.74.33,3.75.98,1.01.65,1.77,1.51,2.27,2.57.51,1.06.76,2.2.76,3.42v1.27h-12.22v-2.16h10.01l-1.09,1.07c0-.88-.13-1.63-.38-2.26-.25-.63-.64-1.11-1.16-1.45-.52-.34-1.16-.51-1.94-.51s-1.44.18-1.98.53c-.54.36-.95.87-1.23,1.54-.28.67-.42,1.47-.42,2.4,0,.86.14,1.63.41,2.3.27.67.69,1.19,1.24,1.57.56.38,1.27.57,2.13.57s1.57-.17,2.11-.52c.54-.35.89-.77,1.04-1.28h3.25c-.2.95-.59,1.78-1.17,2.49-.58.71-1.31,1.26-2.2,1.65-.89.39-1.9.58-3.04.58Z"/><path class="cls-10" d="m298.34,234.16v-13.79h2.79v5.92h-.25c0-1.41.19-2.58.56-3.52.37-.94.93-1.65,1.66-2.12s1.66-.71,2.76-.71h.15c1.64,0,2.89.53,3.73,1.59.85,1.06,1.27,2.64,1.27,4.74v7.9h-3.53v-8.21c0-.85-.24-1.53-.72-2.06-.48-.52-1.15-.79-1.99-.79s-1.56.27-2.1.8c-.53.53-.8,1.25-.8,2.15v8.1h-3.53Z"/><path class="cls-10" d="m313.03,222.96v-2.59h9.76v2.59h-9.76Zm7.77,11.38c-1.27,0-2.32-.17-3.14-.5-.82-.33-1.44-.89-1.84-1.68-.41-.79-.61-1.85-.61-3.19l.03-12.5h3.3l-.03,12.73c0,.68.18,1.2.55,1.56s.89.55,1.56.55h2.16v3.02h-1.98Z"/><path class="cls-10" d="m325.76,234.16v-13.79h2.79v5.84h-.08c0-1.98.42-3.48,1.27-4.5.85-1.02,2.09-1.52,3.73-1.52h.51v3.07h-.97c-1.19,0-2.1.32-2.76.95-.65.64-.98,1.55-.98,2.76v7.19h-3.53Z"/><path class="cls-10" d="m340.19,234.52c-1,0-1.88-.18-2.63-.53-.75-.36-1.34-.86-1.75-1.52-.42-.66-.62-1.46-.62-2.39,0-1.02.25-1.85.75-2.49.5-.64,1.2-1.13,2.11-1.45.91-.32,1.97-.48,3.19-.48h3.2v2.11h-3.25c-.81,0-1.44.2-1.87.6-.43.4-.65.91-.65,1.54s.22,1.13.65,1.52,1.05.58,1.87.58c.49,0,.94-.09,1.36-.27.41-.18.76-.48,1.04-.91.28-.43.44-1.02.47-1.77l.86.99c-.08.97-.32,1.78-.7,2.44-.38.66-.91,1.16-1.58,1.51-.67.35-1.49.52-2.45.52Zm4.45-.36v-4.09h-.58v-4.55c0-.8-.2-1.39-.58-1.78-.39-.39-.99-.58-1.8-.58-.42,0-.93,0-1.52.03-.59.02-1.19.04-1.79.06-.6.03-1.14.06-1.61.09v-3c.39-.03.83-.07,1.32-.1.49-.03.99-.05,1.51-.06.52,0,1-.01,1.46-.01,1.42,0,2.6.19,3.54.56s1.65.96,2.13,1.75c.48.8.72,1.84.72,3.12v8.56h-2.79Z"/><path class="cls-10" d="m349.94,223.01v-2.64h5.46v2.64h-5.46Zm3.23-4.29c-.69,0-1.21-.18-1.54-.55-.33-.36-.5-.83-.5-1.38s.17-1.02.5-1.37c.33-.36.84-.53,1.54-.53s1.2.18,1.52.53c.32.36.48.81.48,1.37s-.16,1.02-.48,1.38c-.32.36-.83.55-1.52.55Zm-1.3,15.45v-13.79h3.53v13.79h-3.53Z"/><path class="cls-10" d="m357.92,218.26v-2.64h5.26v2.64h-5.26Zm1.73,15.9v-18.55h3.53v18.55h-3.53Z"/><path class="cls-10" d="m366.33,234.16v-2.79l6.81-8.18v.41l-.53-.71.43.2h-6.73v-2.72h10.52v2.79l-6.81,8.18v-.38l.56.71-.43-.23h6.96v2.72h-10.77Z"/><path class="cls-10" d="m385.87,234.65c-1.19,0-2.22-.2-3.11-.61-.89-.41-1.63-.95-2.21-1.64-.58-.69-1.02-1.45-1.32-2.3-.3-.85-.44-1.71-.44-2.59v-.48c0-.92.15-1.8.44-2.66.3-.85.74-1.62,1.32-2.29.58-.67,1.31-1.2,2.17-1.6s1.86-.6,3-.6c1.49,0,2.74.33,3.75.98,1.01.65,1.77,1.51,2.27,2.57.51,1.06.76,2.2.76,3.42v1.27h-12.22v-2.16h10.01l-1.09,1.07c0-.88-.13-1.63-.38-2.26-.25-.63-.64-1.11-1.16-1.45-.52-.34-1.16-.51-1.94-.51s-1.44.18-1.98.53c-.54.36-.95.87-1.23,1.54-.28.67-.42,1.47-.42,2.4,0,.86.14,1.63.41,2.3.27.67.69,1.19,1.24,1.57.56.38,1.27.57,2.13.57s1.57-.17,2.11-.52c.54-.35.89-.77,1.04-1.28h3.25c-.2.95-.59,1.78-1.17,2.49-.58.71-1.31,1.26-2.2,1.65-.89.39-1.9.58-3.04.58Z"/><path class="cls-10" d="m401.16,234.62c-.97,0-1.85-.18-2.67-.53-.81-.36-1.52-.85-2.11-1.5-.59-.64-1.05-1.39-1.37-2.25-.32-.85-.48-1.78-.48-2.78v-.53c0-.98.16-1.91.47-2.77.31-.86.75-1.62,1.32-2.26s1.25-1.15,2.06-1.51c.8-.36,1.7-.55,2.68-.55,1.08,0,2.04.23,2.86.7.82.47,1.48,1.16,1.97,2.1.49.93.76,2.1.81,3.51l-1.04-1.22v-9.4h3.53v18.55h-2.79v-5.87h.61c-.05,1.41-.34,2.58-.86,3.52s-1.22,1.64-2.07,2.11c-.86.47-1.83.7-2.91.7Zm.79-2.97c.69,0,1.33-.16,1.91-.47.58-.31,1.04-.77,1.38-1.37s.52-1.31.52-2.12v-1.02c0-.81-.18-1.49-.53-2.04s-.82-.97-1.4-1.27c-.58-.3-1.2-.44-1.88-.44-.76,0-1.44.18-2.02.55-.58.36-1.04.88-1.37,1.54s-.5,1.43-.5,2.31.17,1.65.51,2.3.8,1.16,1.38,1.51c.58.36,1.25.53,1.99.53Z"/><path class="cls-10" d="m418.97,234.16v-18.55h3.61v18.55h-3.61Zm12.02,0l-6.78-8.66h-2.62l8.05-9.88h4.14l-7.27,8.89-.1-1.78,8.97,11.43h-4.4Z"/><path class="cls-10" d="m437.18,234.16v-13.79h2.79v5.92h-.25c0-1.41.19-2.58.56-3.52.37-.94.93-1.65,1.66-2.12s1.66-.71,2.76-.71h.15c1.64,0,2.89.53,3.73,1.59.85,1.06,1.27,2.64,1.27,4.74v7.9h-3.53v-8.21c0-.85-.24-1.53-.72-2.06-.48-.52-1.15-.79-1.99-.79s-1.56.27-2.1.8c-.53.53-.8,1.25-.8,2.15v8.1h-3.53Z"/><path class="cls-10" d="m460.28,234.65c-1.22,0-2.29-.2-3.23-.58-.93-.39-1.72-.92-2.36-1.59-.64-.67-1.13-1.43-1.46-2.27-.33-.85-.5-1.73-.5-2.64v-.53c0-.95.17-1.85.52-2.71.35-.85.85-1.62,1.5-2.29.65-.67,1.44-1.19,2.38-1.58.93-.38,1.98-.57,3.15-.57s2.22.19,3.15.57c.93.38,1.72.91,2.38,1.58.65.67,1.15,1.43,1.49,2.29.34.86.51,1.76.51,2.71v.53c0,.91-.17,1.8-.5,2.64-.33.85-.82,1.6-1.46,2.27-.64.67-1.43,1.2-2.36,1.59-.93.39-2,.58-3.2.58Zm0-3.02c.86,0,1.59-.19,2.19-.57.59-.38,1.04-.9,1.35-1.55.31-.65.46-1.39.46-2.22s-.16-1.6-.47-2.25c-.31-.65-.77-1.17-1.37-1.55-.6-.38-1.32-.57-2.15-.57s-1.55.19-2.15.57c-.6.38-1.06.9-1.38,1.55-.32.65-.48,1.4-.48,2.25s.16,1.57.47,2.22c.31.65.77,1.17,1.36,1.55.59.38,1.32.57,2.18.57Z"/><path class="cls-10" d="m472.85,234.16l-3.76-13.79h3.43l3.58,13.79h-3.25Zm1.42,0l-.03-2.9h2.82v2.9h-2.79Zm1.04,0l2.62-13.34h4.06l3.02,13.34h-2.79l-3.07-13.26h1.47l-2.72,13.26h-2.59Zm7.8,0v-2.9h2.82l-.03,2.9h-2.79Zm1.12,0l3.18-13.79h3.2l-3.33,13.79h-3.05Z"/><path class="cls-10" d="m491.83,218.26v-2.64h5.26v2.64h-5.26Zm1.73,15.9v-18.55h3.53v18.55h-3.53Z"/><path class="cls-10" d="m507.3,234.65c-1.19,0-2.22-.2-3.11-.61-.89-.41-1.63-.95-2.21-1.64-.58-.69-1.02-1.45-1.32-2.3-.3-.85-.44-1.71-.44-2.59v-.48c0-.92.15-1.8.44-2.66.3-.85.74-1.62,1.32-2.29.58-.67,1.31-1.2,2.17-1.6s1.86-.6,3-.6c1.49,0,2.74.33,3.75.98,1.01.65,1.77,1.51,2.27,2.57.51,1.06.76,2.2.76,3.42v1.27h-12.22v-2.16h10.01l-1.09,1.07c0-.88-.13-1.63-.38-2.26-.25-.63-.64-1.11-1.16-1.45-.52-.34-1.16-.51-1.94-.51s-1.44.18-1.98.53c-.54.36-.95.87-1.23,1.54-.28.67-.42,1.47-.42,2.4,0,.86.14,1.63.41,2.3.27.67.69,1.19,1.24,1.57.56.38,1.27.57,2.13.57s1.57-.17,2.11-.52c.54-.35.89-.77,1.04-1.28h3.25c-.2.95-.59,1.78-1.17,2.49-.58.71-1.31,1.26-2.2,1.65-.89.39-1.9.58-3.04.58Z"/><path class="cls-10" d="m522.6,234.62c-.97,0-1.85-.18-2.67-.53-.81-.36-1.52-.85-2.11-1.5-.59-.64-1.05-1.39-1.37-2.25-.32-.85-.48-1.78-.48-2.78v-.53c0-.98.16-1.91.47-2.77.31-.86.75-1.62,1.32-2.26s1.25-1.15,2.06-1.51c.8-.36,1.7-.55,2.68-.55,1.08,0,2.04.23,2.86.7.82.47,1.48,1.16,1.97,2.1.49.93.76,2.1.81,3.51l-1.04-1.22v-9.4h3.53v18.55h-2.79v-5.87h.61c-.05,1.41-.34,2.58-.86,3.52s-1.22,1.64-2.07,2.11c-.86.47-1.83.7-2.91.7Zm.79-2.97c.69,0,1.33-.16,1.91-.47.58-.31,1.04-.77,1.38-1.37s.52-1.31.52-2.12v-1.02c0-.81-.18-1.49-.53-2.04s-.82-.97-1.4-1.27c-.58-.3-1.2-.44-1.88-.44-.76,0-1.44.18-2.02.55-.58.36-1.04.88-1.37,1.54s-.5,1.43-.5,2.31.17,1.65.51,2.3.8,1.16,1.38,1.51c.58.36,1.25.53,1.99.53Z"/><path class="cls-10" d="m540.02,239.6c-.66,0-1.33-.03-2.02-.08-.69-.05-1.33-.12-1.92-.2v-2.95c.61.07,1.26.13,1.96.19.69.06,1.35.09,1.96.09,1.13,0,2.05-.14,2.76-.41.7-.27,1.22-.7,1.55-1.28s.5-1.33.5-2.22v-2.72l.76-1.73c-.05,1.27-.31,2.35-.79,3.24s-1.12,1.57-1.93,2.03c-.81.47-1.75.7-2.82.7-.95,0-1.81-.18-2.58-.53-.77-.36-1.43-.85-1.98-1.47s-.98-1.36-1.28-2.21c-.31-.85-.46-1.75-.46-2.72v-.53c0-.97.16-1.87.47-2.71.31-.84.76-1.57,1.33-2.2.58-.63,1.26-1.11,2.06-1.45.8-.34,1.68-.51,2.64-.51,1.13,0,2.12.25,2.96.74s1.49,1.2,1.97,2.13c.47.93.74,2.08.79,3.43l-.61.1v-5.97h2.79v12.17c0,1.68-.29,3.03-.86,4.06-.58,1.03-1.46,1.79-2.65,2.27-1.19.48-2.72.72-4.59.72Zm1.02-8.36c.68,0,1.3-.15,1.85-.46.56-.3,1.01-.75,1.35-1.32.34-.58.51-1.27.51-2.08v-.89c0-.78-.17-1.44-.52-1.98-.35-.54-.8-.95-1.36-1.23-.56-.28-1.17-.42-1.83-.42-.75,0-1.4.17-1.97.52-.57.35-1.01.83-1.33,1.46-.32.63-.48,1.37-.48,2.24s.16,1.58.48,2.21c.32.63.77,1.11,1.33,1.45.57.34,1.22.51,1.97.51Z"/><path class="cls-10" d="m558.16,234.65c-1.19,0-2.22-.2-3.11-.61-.89-.41-1.62-.95-2.21-1.64-.59-.69-1.03-1.45-1.32-2.3-.3-.85-.44-1.71-.44-2.59v-.48c0-.92.15-1.8.44-2.66.3-.85.74-1.62,1.32-2.29.58-.67,1.31-1.2,2.17-1.6.86-.4,1.86-.6,3-.6,1.49,0,2.74.33,3.75.98,1.01.65,1.77,1.51,2.27,2.57.51,1.06.76,2.2.76,3.42v1.27h-12.22v-2.16h10.01l-1.09,1.07c0-.88-.13-1.63-.38-2.26-.26-.63-.64-1.11-1.16-1.45-.52-.34-1.17-.51-1.94-.51s-1.44.18-1.98.53c-.54.36-.95.87-1.23,1.54-.28.67-.42,1.47-.42,2.4,0,.86.13,1.63.41,2.3.27.67.69,1.19,1.24,1.57.56.38,1.27.57,2.13.57s1.57-.17,2.11-.52c.54-.35.89-.77,1.04-1.28h3.25c-.2.95-.59,1.78-1.17,2.49s-1.31,1.26-2.2,1.65c-.89.39-1.9.58-3.04.58Z"/><path class="cls-10" d="m582.15,234.65c-1.59,0-2.99-.27-4.21-.8-1.21-.53-2.23-1.25-3.05-2.16-.82-.91-1.44-1.93-1.85-3.07-.42-1.14-.62-2.33-.62-3.57v-.56c0-1.17.2-2.31.61-3.43.41-1.12,1-2.12,1.79-3.02.79-.9,1.76-1.61,2.92-2.15,1.16-.53,2.49-.8,4-.8,1.63,0,3.07.3,4.32.9,1.25.6,2.26,1.44,3.02,2.52.76,1.08,1.21,2.32,1.35,3.75h-3.63c-.12-.8-.42-1.48-.89-2.05-.47-.57-1.07-1-1.79-1.31-.72-.31-1.51-.46-2.38-.46s-1.65.15-2.35.46c-.7.3-1.3.74-1.79,1.3-.49.56-.87,1.23-1.13,2.01-.26.78-.39,1.64-.39,2.59,0,1.03.14,1.96.43,2.77s.69,1.5,1.22,2.07c.52.57,1.16,1,1.91,1.3.75.3,1.58.44,2.52.44,1.24,0,2.32-.26,3.25-.77s1.61-1.19,2.03-2.02l-.64,2.92v-4.78h3.33v4.12c-.8,1.2-1.88,2.14-3.25,2.81-1.37.67-2.95,1-4.72,1Zm-.58-7.22v-2.69h10.11v2.69h-10.11Z"/><path class="cls-10" d="m594.37,234.16v-13.79h2.79v5.84h-.08c0-1.98.42-3.48,1.27-4.5.85-1.02,2.09-1.52,3.73-1.52h.51v3.07h-.96c-1.19,0-2.11.32-2.76.95-.65.64-.98,1.55-.98,2.76v7.19h-3.53Z"/><path class="cls-10" d="m608.8,234.52c-1,0-1.88-.18-2.63-.53-.75-.36-1.34-.86-1.75-1.52s-.62-1.46-.62-2.39c0-1.02.25-1.85.75-2.49.5-.64,1.2-1.13,2.11-1.45.91-.32,1.97-.48,3.19-.48h3.2v2.11h-3.25c-.81,0-1.44.2-1.87.6-.43.4-.65.91-.65,1.54s.22,1.13.65,1.52,1.05.58,1.87.58c.49,0,.94-.09,1.36-.27s.76-.48,1.04-.91c.28-.43.44-1.02.47-1.77l.86.99c-.08.97-.32,1.78-.7,2.44s-.91,1.16-1.58,1.51c-.67.35-1.49.52-2.45.52Zm4.45-.36v-4.09h-.58v-4.55c0-.8-.2-1.39-.58-1.78s-.99-.58-1.8-.58c-.42,0-.93,0-1.52.03-.59.02-1.19.04-1.79.06-.6.03-1.14.06-1.61.09v-3c.39-.03.83-.07,1.32-.1.49-.03,1-.05,1.51-.06.52,0,1-.01,1.46-.01,1.42,0,2.6.19,3.54.56.94.37,1.65.96,2.13,1.75.48.8.72,1.84.72,3.12v8.56h-2.79Z"/><path class="cls-10" d="m619.82,239.24v-18.88h2.79v5.94l-.43-.03c.07-1.41.36-2.58.88-3.53.52-.95,1.21-1.66,2.07-2.12.86-.47,1.83-.7,2.9-.7.98,0,1.87.18,2.66.53.79.36,1.46.86,2.03,1.5.57.64,1,1.39,1.31,2.25.3.86.46,1.77.46,2.76v.53c0,1-.15,1.93-.44,2.78-.3.86-.73,1.61-1.3,2.26-.57.65-1.25,1.16-2.04,1.52-.8.36-1.69.55-2.67.55-1.03,0-1.98-.22-2.83-.65-.86-.43-1.54-1.1-2.07-2.01-.53-.91-.82-2.08-.89-3.52l1.12,1.7v9.1h-3.53Zm7.32-7.6c.76,0,1.43-.19,1.99-.56.57-.37,1.01-.89,1.33-1.56.32-.67.48-1.43.48-2.27s-.16-1.64-.48-2.29c-.32-.64-.77-1.15-1.33-1.51-.57-.36-1.23-.55-1.99-.55-.7,0-1.33.15-1.92.46-.58.31-1.06.75-1.42,1.35-.37.59-.55,1.3-.55,2.13v1.02c0,.8.19,1.47.56,2.03.37.56.85.99,1.45,1.3.59.31,1.22.46,1.88.46Z"/><path class="cls-10" d="m637.58,234.16v-18.55h3.53v10.82h-.61c0-1.39.18-2.57.53-3.53.36-.97.88-1.7,1.59-2.21s1.6-.76,2.68-.76h.15c1.58,0,2.77.54,3.58,1.63.81,1.08,1.22,2.66,1.22,4.73v7.88h-3.53v-8.21c0-.88-.25-1.58-.75-2.08-.5-.51-1.16-.76-1.97-.76-.86,0-1.56.28-2.1.85-.53.57-.8,1.31-.8,2.22v7.98h-3.53Z"/><path class="cls-10" d="m87.15,268.75v-18.67h3.61v18.67h-3.61Zm3.1-5.69v-3.12h3.61c.73,0,1.34-.14,1.84-.43.5-.29.88-.69,1.14-1.19.26-.51.39-1.09.39-1.75s-.13-1.24-.39-1.75c-.26-.51-.64-.9-1.14-1.18-.5-.28-1.11-.42-1.84-.42h-3.61v-3.12h3.3c1.56,0,2.88.25,3.98.76,1.09.51,1.93,1.23,2.5,2.17.58.94.86,2.05.86,3.34v.41c0,1.29-.29,2.4-.86,3.34-.58.94-1.41,1.67-2.5,2.18-1.09.52-2.42.77-3.98.77h-3.3Z"/><path class="cls-10" d="m106.61,268.45l-4.47-13.49h3.56l4.24,13.49h-3.33Zm-3.1,5.74v-3.02h2.59c.49,0,.9-.06,1.23-.19.33-.13.61-.33.83-.61s.39-.67.51-1.16l3.71-14.25h3.38l-4.09,15.01c-.27,1.03-.65,1.86-1.14,2.48s-1.12,1.06-1.89,1.33c-.77.27-1.72.41-2.86.41h-2.26Zm4.29-5.74v-2.79h2.95v2.79h-2.95Z"/><path class="cls-10" d="m116.67,257.55v-2.59h9.76v2.59h-9.76Zm7.77,11.38c-1.27,0-2.32-.17-3.14-.5-.82-.33-1.44-.89-1.84-1.68-.41-.79-.61-1.85-.61-3.19l.03-12.5h3.3l-.03,12.73c0,.68.18,1.2.55,1.56s.89.55,1.56.55h2.16v3.02h-1.98Z"/><path class="cls-10" d="m129.4,268.75v-18.55h3.53v10.82h-.61c0-1.39.18-2.57.53-3.53.36-.97.88-1.7,1.59-2.21s1.6-.76,2.68-.76h.15c1.58,0,2.77.54,3.58,1.63.81,1.08,1.22,2.66,1.22,4.73v7.88h-3.53v-8.21c0-.88-.25-1.58-.75-2.08-.5-.51-1.16-.76-1.97-.76-.86,0-1.56.28-2.1.85-.53.57-.8,1.31-.8,2.22v7.98h-3.53Z"/><path class="cls-10" d="m152.49,269.23c-1.22,0-2.29-.2-3.23-.58-.93-.39-1.72-.92-2.36-1.59-.64-.67-1.13-1.43-1.46-2.27-.33-.85-.5-1.73-.5-2.64v-.53c0-.95.17-1.85.52-2.71.35-.85.85-1.62,1.5-2.29.65-.67,1.44-1.19,2.38-1.58.93-.38,1.98-.57,3.15-.57s2.22.19,3.15.57c.93.38,1.72.91,2.38,1.58.65.67,1.15,1.43,1.49,2.29.34.86.51,1.76.51,2.71v.53c0,.91-.17,1.8-.5,2.64-.33.85-.82,1.61-1.46,2.27-.64.67-1.43,1.2-2.36,1.59-.93.39-2,.58-3.2.58Zm0-3.02c.86,0,1.59-.19,2.19-.57.59-.38,1.04-.9,1.35-1.55.31-.65.46-1.39.46-2.22s-.16-1.6-.47-2.25c-.31-.65-.77-1.17-1.37-1.55-.6-.38-1.32-.57-2.15-.57s-1.55.19-2.15.57c-.6.38-1.06.9-1.38,1.55-.32.65-.48,1.4-.48,2.25s.16,1.57.47,2.22c.31.65.77,1.17,1.36,1.55.59.38,1.32.57,2.18.57Z"/><path class="cls-10" d="m163.11,268.75v-13.8h2.79v5.92h-.25c0-1.41.19-2.58.56-3.52.37-.94.93-1.65,1.66-2.12s1.66-.71,2.76-.71h.15c1.64,0,2.89.53,3.73,1.59.85,1.06,1.27,2.64,1.27,4.74v7.9h-3.53v-8.21c0-.85-.24-1.53-.72-2.06-.48-.52-1.15-.79-1.99-.79s-1.56.27-2.1.8c-.53.53-.8,1.25-.8,2.15v8.1h-3.53Z"/><path class="cls-10" d="m191.67,269.23c-1.64,0-3.03-.26-4.15-.79-1.13-.53-1.99-1.25-2.58-2.17-.59-.92-.89-1.97-.89-3.14h3.53c0,.49.14.97.41,1.44.27.47.71.84,1.31,1.13s1.39.43,2.38.43c.88,0,1.62-.13,2.21-.38.59-.25,1.03-.59,1.32-1,.29-.41.43-.88.43-1.41,0-.66-.28-1.19-.84-1.59s-1.42-.65-2.59-.75l-1.63-.13c-1.78-.15-3.2-.71-4.26-1.66-1.06-.96-1.59-2.22-1.59-3.8,0-1.19.28-2.21.84-3.06.56-.85,1.34-1.52,2.35-1.98,1.01-.47,2.19-.7,3.54-.7s2.62.25,3.63.74c1.02.49,1.8,1.18,2.36,2.07s.84,1.94.84,3.14h-3.53c0-.51-.12-.98-.37-1.41-.25-.43-.61-.78-1.09-1.04-.48-.26-1.1-.39-1.84-.39s-1.3.12-1.78.36c-.47.24-.83.56-1.07.97-.24.41-.36.85-.36,1.32,0,.58.21,1.08.64,1.51.42.43,1.09.68,2.01.75l1.63.15c1.32.1,2.48.38,3.48.84s1.77,1.08,2.32,1.85c.55.78.83,1.72.83,2.82,0,1.17-.3,2.2-.91,3.09-.61.89-1.48,1.58-2.6,2.07-1.13.49-2.45.74-3.98.74Z"/><path class="cls-10" d="m208.82,269.23c-1.22,0-2.29-.2-3.23-.58-.93-.39-1.72-.92-2.36-1.59-.64-.67-1.13-1.43-1.46-2.27-.33-.85-.5-1.73-.5-2.64v-.53c0-.95.17-1.85.52-2.71.35-.85.85-1.62,1.5-2.29.65-.67,1.44-1.19,2.38-1.58.93-.38,1.98-.57,3.15-.57s2.22.19,3.15.57c.93.38,1.72.91,2.38,1.58.65.67,1.15,1.43,1.49,2.29.34.86.51,1.76.51,2.71v.53c0,.91-.17,1.8-.5,2.64-.33.85-.82,1.61-1.46,2.27-.64.67-1.43,1.2-2.36,1.59-.93.39-2,.58-3.2.58Zm0-3.02c.86,0,1.59-.19,2.19-.57.59-.38,1.04-.9,1.35-1.55.31-.65.46-1.39.46-2.22s-.16-1.6-.47-2.25c-.31-.65-.77-1.17-1.37-1.55-.6-.38-1.32-.57-2.15-.57s-1.55.19-2.15.57c-.6.38-1.06.9-1.38,1.55-.32.65-.48,1.4-.48,2.25s.16,1.57.47,2.22c.31.65.77,1.17,1.36,1.55.59.38,1.32.57,2.18.57Z"/><path class="cls-10" d="m218.04,257.77v-2.59h8.87v2.59h-8.87Zm1.73,10.98v-14.13c0-1.58.44-2.74,1.31-3.49.87-.75,2.16-1.13,3.87-1.13h1.73v2.72h-1.98c-.53,0-.93.14-1.21.42-.28.28-.42.67-.42,1.18v14.43h-3.3Z"/><path class="cls-10" d="m227.59,257.55v-2.59h9.76v2.59h-9.76Zm7.77,11.38c-1.27,0-2.32-.17-3.14-.5-.82-.33-1.44-.89-1.84-1.68-.41-.79-.61-1.85-.61-3.19l.03-12.5h3.3l-.03,12.73c0,.68.18,1.2.55,1.56s.89.55,1.56.55h2.16v3.02h-1.98Z"/><path class="cls-10" d="m242.58,268.75l-3.76-13.8h3.43l3.58,13.8h-3.25Zm1.42,0l-.03-2.9h2.82v2.9h-2.79Zm1.04,0l2.62-13.34h4.06l3.02,13.34h-2.79l-3.07-13.26h1.47l-2.72,13.26h-2.59Zm7.8,0v-2.9h2.82l-.03,2.9h-2.79Zm1.12,0l3.18-13.8h3.2l-3.33,13.8h-3.05Z"/><path class="cls-10" d="m266.84,269.11c-1,0-1.88-.18-2.63-.53-.75-.36-1.34-.86-1.75-1.52-.42-.66-.62-1.46-.62-2.39,0-1.02.25-1.85.75-2.49.5-.64,1.2-1.13,2.11-1.45.91-.32,1.97-.48,3.19-.48h3.2v2.11h-3.25c-.81,0-1.44.2-1.87.6-.43.4-.65.91-.65,1.54s.22,1.13.65,1.52,1.05.58,1.87.58c.49,0,.94-.09,1.36-.27.41-.18.76-.48,1.04-.91s.44-1.02.47-1.77l.86.99c-.08.97-.32,1.78-.7,2.44-.38.66-.91,1.16-1.58,1.51-.67.35-1.49.52-2.45.52Zm4.45-.36v-4.09h-.58v-4.55c0-.8-.2-1.39-.58-1.78-.39-.39-.99-.58-1.8-.58-.42,0-.93,0-1.52.03-.59.02-1.19.04-1.79.06-.6.03-1.14.06-1.61.09v-3c.39-.03.83-.07,1.32-.1.49-.03.99-.05,1.51-.06.52,0,1-.01,1.46-.01,1.42,0,2.6.19,3.54.56s1.65.96,2.13,1.75c.48.8.72,1.84.72,3.12v8.56h-2.79Z"/><path class="cls-10" d="m277.87,268.75v-13.8h2.79v5.84h-.08c0-1.98.42-3.48,1.27-4.5.85-1.02,2.09-1.52,3.73-1.52h.51v3.07h-.97c-1.19,0-2.1.32-2.76.95-.65.64-.98,1.55-.98,2.76v7.19h-3.53Z"/><path class="cls-10" d="m294.53,269.23c-1.19,0-2.22-.2-3.11-.61-.89-.41-1.63-.95-2.21-1.64-.58-.69-1.02-1.45-1.32-2.3-.3-.85-.44-1.71-.44-2.59v-.48c0-.92.15-1.8.44-2.66.3-.85.74-1.62,1.32-2.29.58-.67,1.31-1.2,2.17-1.6s1.86-.6,3-.6c1.49,0,2.74.33,3.75.98,1.01.65,1.77,1.51,2.27,2.57.51,1.06.76,2.2.76,3.42v1.27h-12.22v-2.16h10.01l-1.09,1.07c0-.88-.13-1.63-.38-2.26-.25-.63-.64-1.11-1.16-1.45-.52-.34-1.16-.51-1.94-.51s-1.44.18-1.98.53c-.54.36-.95.87-1.23,1.54-.28.67-.42,1.47-.42,2.4,0,.86.14,1.63.41,2.3.27.67.69,1.19,1.24,1.58.56.38,1.27.57,2.13.57s1.57-.17,2.11-.52c.54-.35.89-.77,1.04-1.28h3.25c-.2.95-.59,1.78-1.17,2.49-.58.71-1.31,1.26-2.2,1.65-.89.39-1.9.58-3.04.58Z"/><path class="cls-10" d="m309.88,268.85v-18.77h3.61v18.77h-3.61Zm3.1,0v-3.35h3.84c.97,0,1.82-.15,2.58-.44.75-.3,1.39-.72,1.92-1.26.52-.54.93-1.18,1.21-1.92.28-.74.42-1.55.42-2.45s-.14-1.77-.42-2.5c-.28-.74-.68-1.37-1.21-1.89s-1.16-.92-1.92-1.19c-.75-.27-1.61-.41-2.58-.41h-3.84v-3.35h3.61c1.68,0,3.14.25,4.4.74,1.25.49,2.29,1.16,3.12,2.02.83.86,1.45,1.83,1.87,2.92.41,1.09.62,2.22.62,3.39v.56c0,1.12-.21,2.22-.62,3.3-.42,1.08-1.04,2.07-1.87,2.95-.83.88-1.87,1.58-3.12,2.11-1.25.53-2.72.79-4.4.79h-3.61Z"/><path class="cls-10" d="m335.72,269.23c-1.19,0-2.22-.2-3.11-.61-.89-.41-1.63-.95-2.21-1.64-.58-.69-1.02-1.45-1.32-2.3-.3-.85-.44-1.71-.44-2.59v-.48c0-.92.15-1.8.44-2.66.3-.85.74-1.62,1.32-2.29.58-.67,1.31-1.2,2.17-1.6s1.86-.6,3-.6c1.49,0,2.74.33,3.75.98,1.01.65,1.77,1.51,2.27,2.57.51,1.06.76,2.2.76,3.42v1.27h-12.22v-2.16h10.01l-1.09,1.07c0-.88-.13-1.63-.38-2.26-.25-.63-.64-1.11-1.16-1.45-.52-.34-1.16-.51-1.94-.51s-1.44.18-1.98.53c-.54.36-.95.87-1.23,1.54-.28.67-.42,1.47-.42,2.4,0,.86.14,1.63.41,2.3.27.67.69,1.19,1.24,1.58.56.38,1.27.57,2.13.57s1.57-.17,2.11-.52c.54-.35.89-.77,1.04-1.28h3.25c-.2.95-.59,1.78-1.17,2.49-.58.71-1.31,1.26-2.2,1.65-.89.39-1.9.58-3.04.58Z"/><path class="cls-10" d="m347.94,268.75l-4.32-13.8h3.63l4.14,13.8h-3.46Zm1.04,0v-2.9h3.73v2.9h-3.73Zm1.4,0l3.56-13.8h3.4l-3.73,13.8h-3.23Z"/><path class="cls-10" d="m365.87,269.23c-1.19,0-2.22-.2-3.11-.61-.89-.41-1.63-.95-2.21-1.64-.58-.69-1.02-1.45-1.32-2.3-.3-.85-.44-1.71-.44-2.59v-.48c0-.92.15-1.8.44-2.66.3-.85.74-1.62,1.32-2.29.58-.67,1.31-1.2,2.17-1.6s1.86-.6,3-.6c1.49,0,2.74.33,3.75.98,1.01.65,1.77,1.51,2.27,2.57.51,1.06.76,2.2.76,3.42v1.27h-12.22v-2.16h10.01l-1.09,1.07c0-.88-.13-1.63-.38-2.26-.25-.63-.64-1.11-1.16-1.45-.52-.34-1.16-.51-1.94-.51s-1.44.18-1.98.53c-.54.36-.95.87-1.23,1.54-.28.67-.42,1.47-.42,2.4,0,.86.14,1.63.41,2.3.27.67.69,1.19,1.24,1.58.56.38,1.27.57,2.13.57s1.57-.17,2.11-.52c.54-.35.89-.77,1.04-1.28h3.25c-.2.95-.59,1.78-1.17,2.49-.58.71-1.31,1.26-2.2,1.65-.89.39-1.9.58-3.04.58Z"/><path class="cls-10" d="m373.9,252.85v-2.64h5.26v2.64h-5.26Zm1.73,15.9v-18.55h3.53v18.55h-3.53Z"/><path class="cls-10" d="m389.83,269.23c-1.22,0-2.29-.2-3.23-.58-.93-.39-1.72-.92-2.36-1.59-.64-.67-1.13-1.43-1.46-2.27-.33-.85-.5-1.73-.5-2.64v-.53c0-.95.17-1.85.52-2.71.35-.85.85-1.62,1.5-2.29.65-.67,1.44-1.19,2.38-1.58.93-.38,1.98-.57,3.15-.57s2.22.19,3.15.57c.93.38,1.72.91,2.38,1.58.65.67,1.15,1.43,1.49,2.29.34.86.51,1.76.51,2.71v.53c0,.91-.17,1.8-.5,2.64-.33.85-.82,1.61-1.46,2.27-.64.67-1.43,1.2-2.36,1.59-.93.39-2,.58-3.2.58Zm0-3.02c.86,0,1.59-.19,2.19-.57.59-.38,1.04-.9,1.35-1.55.31-.65.46-1.39.46-2.22s-.16-1.6-.47-2.25c-.31-.65-.77-1.17-1.37-1.55-.6-.38-1.32-.57-2.15-.57s-1.55.19-2.15.57c-.6.38-1.06.9-1.38,1.55-.32.65-.48,1.4-.48,2.25s.16,1.57.47,2.22c.31.65.77,1.17,1.36,1.55.59.38,1.32.57,2.18.57Z"/><path class="cls-10" d="m400.45,273.83v-18.88h2.79v5.94l-.43-.03c.07-1.41.36-2.58.88-3.53.52-.95,1.21-1.66,2.07-2.12s1.83-.7,2.9-.7c.98,0,1.87.18,2.65.53.79.36,1.46.86,2.03,1.5.57.64,1,1.39,1.31,2.25.31.86.46,1.77.46,2.76v.53c0,1-.15,1.93-.44,2.78-.3.86-.73,1.61-1.3,2.26-.57.65-1.25,1.16-2.05,1.52-.8.36-1.69.55-2.67.55-1.03,0-1.98-.22-2.83-.65-.86-.43-1.55-1.1-2.07-2.01-.52-.91-.82-2.08-.89-3.52l1.12,1.7v9.1h-3.53Zm7.32-7.6c.76,0,1.43-.19,1.99-.56.57-.37,1.01-.89,1.33-1.56.32-.67.48-1.43.48-2.27s-.16-1.64-.48-2.29c-.32-.64-.77-1.15-1.33-1.51-.57-.36-1.23-.55-1.99-.55-.69,0-1.33.15-1.92.46-.58.31-1.06.75-1.42,1.35s-.55,1.3-.55,2.13v1.02c0,.8.19,1.47.56,2.03.37.56.85.99,1.45,1.3.59.3,1.22.46,1.88.46Z"/><path class="cls-10" d="m418.21,268.75v-13.8h2.79v5.92h-.25c0-1.39.18-2.55.53-3.49.36-.94.88-1.65,1.59-2.13.7-.48,1.58-.72,2.63-.72h.15c1.07,0,1.95.24,2.65.72s1.23,1.19,1.58,2.13c.35.94.52,2.1.52,3.49h-.89c0-1.39.18-2.55.55-3.49.36-.94.9-1.65,1.6-2.13s1.58-.72,2.63-.72h.15c1.07,0,1.96.24,2.67.72s1.25,1.19,1.61,2.13c.36.94.55,2.1.55,3.49v7.88h-3.53v-8.21c0-.86-.22-1.55-.66-2.07s-1.07-.77-1.88-.77-1.46.27-1.96.8c-.49.53-.74,1.25-.74,2.15v8.1h-3.53v-8.21c0-.86-.22-1.55-.66-2.07s-1.07-.77-1.88-.77-1.47.27-1.96.8c-.49.53-.74,1.25-.74,2.15v8.1h-3.53Z"/><path class="cls-10" d="m449.23,269.23c-1.19,0-2.22-.2-3.11-.61-.89-.41-1.63-.95-2.21-1.64-.58-.69-1.02-1.45-1.32-2.3-.3-.85-.44-1.71-.44-2.59v-.48c0-.92.15-1.8.44-2.66.3-.85.74-1.62,1.32-2.29.58-.67,1.31-1.2,2.17-1.6s1.86-.6,3-.6c1.49,0,2.74.33,3.75.98,1.01.65,1.77,1.51,2.27,2.57.51,1.06.76,2.2.76,3.42v1.27h-12.22v-2.16h10.01l-1.09,1.07c0-.88-.13-1.63-.38-2.26-.25-.63-.64-1.11-1.16-1.45-.52-.34-1.16-.51-1.94-.51s-1.44.18-1.98.53c-.54.36-.95.87-1.23,1.54-.28.67-.42,1.47-.42,2.4,0,.86.14,1.63.41,2.3.27.67.69,1.19,1.24,1.58.56.38,1.27.57,2.13.57s1.57-.17,2.11-.52c.54-.35.89-.77,1.04-1.28h3.25c-.2.95-.59,1.78-1.17,2.49-.58.71-1.31,1.26-2.2,1.65-.89.39-1.9.58-3.04.58Z"/><path class="cls-10" d="m458.8,268.75v-13.8h2.79v5.92h-.25c0-1.41.19-2.58.56-3.52.37-.94.93-1.65,1.66-2.12s1.66-.71,2.76-.71h.15c1.64,0,2.89.53,3.73,1.59.85,1.06,1.27,2.64,1.27,4.74v7.9h-3.53v-8.21c0-.85-.24-1.53-.72-2.06-.48-.52-1.15-.79-1.99-.79s-1.56.27-2.1.8c-.53.53-.8,1.25-.8,2.15v8.1h-3.53Z"/><path class="cls-10" d="m473.49,257.55v-2.59h9.76v2.59h-9.76Zm7.77,11.38c-1.27,0-2.32-.17-3.14-.5-.82-.33-1.44-.89-1.84-1.68-.41-.79-.61-1.85-.61-3.19l.03-12.5h3.3l-.03,12.73c0,.68.18,1.2.55,1.56s.89.55,1.56.55h2.16v3.02h-1.98Z"/><path class="cls-10" d="m491.98,268.75v-18.55h3.61v18.55h-3.61Zm12.02,0l-6.78-8.66h-2.62l8.05-9.88h4.14l-7.27,8.89-.1-1.78,8.97,11.43h-4.4Z"/><path class="cls-10" d="m508.93,257.6v-2.64h5.46v2.64h-5.46Zm3.23-4.29c-.69,0-1.21-.18-1.54-.55-.33-.36-.5-.83-.5-1.38s.17-1.02.5-1.37c.33-.36.84-.53,1.54-.53s1.2.18,1.52.53c.32.36.48.81.48,1.37s-.16,1.02-.48,1.38c-.32.36-.83.55-1.52.55Zm-1.3,15.45v-13.8h3.53v13.8h-3.53Z"/><path class="cls-10" d="m516.68,257.55v-2.59h9.76v2.59h-9.76Zm7.77,11.38c-1.27,0-2.32-.17-3.14-.5-.82-.33-1.44-.89-1.84-1.68-.41-.79-.61-1.85-.61-3.19l.03-12.5h3.3l-.03,12.73c0,.68.18,1.2.55,1.56s.89.55,1.56.55h2.16v3.02h-1.98Z"/></g><g id="Layer_2"><path class="cls-11" d="m105.07,60.55c-4.77,0-8.64,3.87-8.64,8.64s3.87,8.64,8.64,8.64c2.65,0,5.03-1.2,6.61-3.08l6.54,5.51c-3.15,3.74-7.88,6.12-13.16,6.12-9.5,0-17.2-7.7-17.2-17.2s7.7-17.2,17.2-17.2v8.55Zm14.86,17.3l-7.39-4.31c.25-.43.47-.89.64-1.36l8.03,2.96c-.35.95-.78,1.85-1.28,2.71Zm-6.22-8.66h8.55c0-1.02-.09-2.02-.26-2.99l-8.42,1.49c.09.49.13.99.13,1.5Zm4.58-11l-6.57,5.47c-.32-.39-.68-.74-1.06-1.07l5.52-6.53c.76.65,1.47,1.36,2.11,2.13Z"/><path class="cls-10" d="m136.55,77.24c-1.32,0-2.48-.29-3.48-.88s-1.76-1.38-2.3-2.37-.8-2.1-.8-3.3.27-2.28.8-3.28,1.3-1.79,2.3-2.37,2.16-.88,3.48-.88,2.51.29,3.51.88,1.76,1.38,2.3,2.37.8,2.09.8,3.28-.27,2.3-.8,3.3-1.3,1.79-2.3,2.37-2.17.88-3.51.88Zm0-2.91c.98,0,1.75-.34,2.32-1.03.58-.71.88-1.57.88-2.61s-.29-1.87-.88-2.55c-.57-.71-1.34-1.06-2.32-1.06s-1.75.35-2.32,1.06c-.57.69-.85,1.54-.85,2.55s.28,1.9.85,2.61c.57.69,1.34,1.03,2.32,1.03Zm9.03-9.85h3.28v1.7c.45-.57,1.03-1.04,1.75-1.42.72-.38,1.46-.57,2.22-.57v3.2c-.22-.05-.52-.08-.9-.08-.55,0-1.13.14-1.75.41-.62.26-1.06.58-1.32.98v8.23h-3.28v-12.46Zm10.92-1.83c-.53,0-1-.19-1.39-.57-.38-.4-.57-.86-.57-1.39s.19-.99.57-1.37c.4-.4.86-.59,1.39-.59s1.01.19,1.39.57c.38.38.57.84.57,1.39s-.19,1-.57,1.39c-.38.38-.84.57-1.39.57Zm-1.63,1.83h3.28v12.46h-3.28v-12.46Zm7.74,13.28c.93,1.03,2.23,1.55,3.89,1.55.93,0,1.73-.25,2.4-.75.69-.48,1.03-1.28,1.03-2.4v-1.26c-.5.62-1.07,1.1-1.73,1.44-.65.34-1.36.52-2.12.52-1.05,0-1.99-.24-2.84-.72-.83-.5-1.48-1.22-1.96-2.17-.46-.96-.7-2.12-.7-3.46s.23-2.46.7-3.4c.48-.96,1.13-1.69,1.96-2.19.83-.5,1.77-.75,2.84-.75.76,0,1.46.16,2.12.49.65.33,1.23.8,1.73,1.42v-1.6h3.3v11.61c0,2.15-.66,3.67-1.99,4.57-1.31.89-2.89,1.34-4.75,1.34-1.1,0-2.08-.15-2.94-.44-.86-.28-1.67-.75-2.42-1.42l1.47-2.37Zm7.33-9.26c-.28-.41-.68-.75-1.21-1.01-.52-.28-1.05-.41-1.6-.41-.95,0-1.71.31-2.3.93-.57.62-.85,1.45-.85,2.5s.28,1.88.85,2.5c.58.62,1.35.93,2.3.93.53,0,1.07-.14,1.6-.41.53-.28.94-.61,1.21-1.01v-4.02Zm8.18-5.86c-.53,0-1-.19-1.39-.57-.38-.4-.57-.86-.57-1.39s.19-.99.57-1.37c.4-.4.86-.59,1.39-.59s1.01.19,1.39.57c.38.38.57.84.57,1.39s-.19,1-.57,1.39c-.38.38-.84.57-1.39.57Zm-1.63,1.83h3.28v12.46h-3.28v-12.46Zm14.93,4.93c0-.83-.2-1.42-.59-1.78-.4-.36-.96-.54-1.7-.54-.6,0-1.15.15-1.65.44-.48.28-.88.62-1.19,1.03v8.38h-3.28v-12.46h3.28v1.63c.45-.53,1.05-.99,1.81-1.37.76-.38,1.61-.57,2.55-.57,1.34,0,2.35.35,3.02,1.06.69.71,1.03,1.68,1.03,2.91v8.8h-3.28v-7.53Zm10.71,7.84c-1.15,0-2.03-.29-2.63-.88s-.9-1.43-.9-2.53v-6.5h-2.06v-2.86h2.06v-3.4h3.3v3.4h2.53v2.86h-2.53v5.62c0,.4.1.72.31.98.21.26.48.39.83.39.24,0,.46-.03.67-.1.21-.07.36-.15.46-.26l.7,2.48c-.6.53-1.51.8-2.73.8Zm4.54-12.77h3.28v1.7c.45-.57,1.03-1.04,1.75-1.42s1.46-.57,2.22-.57v3.2c-.22-.05-.52-.08-.9-.08-.55,0-1.13.14-1.75.41-.62.26-1.06.58-1.32.98v8.23h-3.28v-12.46Zm17.86,10.89c-.5.6-1.08,1.07-1.75,1.39-.65.33-1.35.49-2.09.49-1.05,0-1.99-.26-2.84-.77-.84-.52-1.5-1.26-1.99-2.24-.46-.98-.7-2.15-.7-3.51s.23-2.48.7-3.46c.48-1,1.13-1.76,1.96-2.3.84-.53,1.8-.8,2.86-.8.74,0,1.44.16,2.12.49s1.25.8,1.73,1.42v-1.6h3.3v12.46h-3.3v-1.57Zm0-6.84c-.29-.41-.71-.75-1.24-1.01-.52-.28-1.05-.41-1.6-.41-.93,0-1.69.34-2.27,1.01-.58.65-.88,1.52-.88,2.61s.29,1.93.88,2.61c.58.67,1.34,1.01,2.27,1.01.55,0,1.08-.13,1.6-.39.53-.28.95-.62,1.24-1.03v-4.38Zm8.17-5.88c-.53,0-1-.19-1.39-.57-.38-.4-.57-.86-.57-1.39s.19-.99.57-1.37c.4-.4.86-.59,1.39-.59s1.01.19,1.39.57c.38.38.57.84.57,1.39s-.19,1-.57,1.39c-.38.38-.84.57-1.39.57Zm-1.63,1.83h3.28v12.46h-3.28v-12.46Zm10.03,12.77c-1.15,0-2.03-.28-2.63-.85-.58-.58-.88-1.44-.88-2.55v-14.11h3.28v13.23c0,.4.1.72.31.98.21.26.48.39.83.39.24,0,.46-.03.67-.1.21-.07.35-.15.44-.26l.7,2.48c-.6.53-1.5.8-2.71.8Z"/></g></svg>